<svg width="247" height="231" viewBox="0 0 247 231" fill="none" xmlns="http://www.w3.org/2000/svg">
<rect x="0.5" width="246" height="231" rx="10" fill="white"/>
<rect x="31.5" y="96" width="184" height="40.7727" rx="20.3864" fill="url(#paint0_linear_738_13288)"/>
<rect x="31.757" y="96.257" width="183.486" height="40.2588" rx="20.1294" stroke="black" stroke-opacity="0.15" stroke-width="0.513942"/>
<path d="M51.9303 119.883V112.356H52.7876V119.883H51.9303ZM52.3694 119.883V119.13H56.9694V119.883H52.3694ZM52.3694 116.339V115.586H56.5931V116.339H52.3694ZM52.3694 113.108V112.356H56.8858V113.108H52.3694ZM58.5344 119.883V114.551H59.3185V115.806H59.3708V119.883H58.5344ZM62.3503 119.883V116.391C62.3503 115.987 62.2493 115.684 62.0472 115.481C61.845 115.279 61.5453 115.178 61.1481 115.178C60.7996 115.178 60.4894 115.255 60.2176 115.408C59.9528 115.562 59.7437 115.774 59.5903 116.046C59.444 116.318 59.3708 116.635 59.3708 116.997L59.2349 115.732C59.4161 115.335 59.6914 115.021 60.0608 114.791C60.4372 114.561 60.8623 114.446 61.3362 114.446C61.8938 114.446 62.3399 114.607 62.6744 114.927C63.0159 115.241 63.1867 115.656 63.1867 116.171V119.883H62.3503ZM66.7827 119.977C66.1902 119.977 65.7581 119.844 65.4863 119.58C65.2214 119.308 65.089 118.918 65.089 118.409V113.307L65.9254 112.993V118.398C65.9254 118.698 66.0021 118.918 66.1554 119.057C66.3087 119.196 66.5596 119.266 66.9081 119.266C67.0475 119.266 67.166 119.259 67.2636 119.245C67.3681 119.224 67.4517 119.2 67.5145 119.172V119.883C67.4448 119.911 67.3437 119.932 67.2113 119.946C67.0858 119.966 66.943 119.977 66.7827 119.977ZM63.9913 115.262V114.551H67.5145V115.262H63.9913ZM70.6635 119.987C70.1547 119.987 69.7052 119.869 69.3149 119.632C68.9246 119.388 68.6179 119.057 68.3949 118.639C68.1718 118.221 68.0603 117.74 68.0603 117.196C68.0603 116.652 68.1683 116.175 68.3844 115.764C68.6074 115.346 68.9176 115.021 69.3149 114.791C69.7121 114.561 70.1687 114.446 70.6844 114.446C71.1793 114.446 71.6079 114.554 71.9703 114.771C72.3397 114.987 72.622 115.29 72.8171 115.68C73.0193 116.07 73.1203 116.53 73.1203 117.06C73.1203 117.13 73.1168 117.196 73.1099 117.259C73.1099 117.321 73.1029 117.391 73.089 117.468H68.6876V116.767H72.5767L72.3049 117.154C72.3049 116.513 72.162 116.022 71.8762 115.68C71.5974 115.332 71.2002 115.157 70.6844 115.157C70.1547 115.157 69.7261 115.342 69.3985 115.711C69.0779 116.074 68.9176 116.565 68.9176 117.186C68.9176 117.82 69.0779 118.329 69.3985 118.712C69.7261 119.088 70.1617 119.276 70.7053 119.276C71.0468 119.276 71.3465 119.203 71.6044 119.057C71.8623 118.904 72.0505 118.688 72.169 118.409H72.9635C72.7893 118.897 72.4965 119.283 72.0853 119.569C71.6811 119.848 71.2071 119.987 70.6635 119.987ZM74.3796 119.883V114.551H75.1637V115.91H75.216V119.883H74.3796ZM75.216 117.102L75.0801 115.837C75.2055 115.384 75.4285 115.039 75.7491 114.802C76.0698 114.565 76.4391 114.446 76.8573 114.446C77.0316 114.446 77.1501 114.46 77.2128 114.488V115.293C77.1779 115.279 77.1291 115.272 77.0664 115.272C77.0037 115.265 76.927 115.262 76.8364 115.262C76.3067 115.262 75.9025 115.422 75.6237 115.743C75.3519 116.056 75.216 116.509 75.216 117.102ZM82.2016 119.987C81.5465 119.987 81.0238 119.838 80.6335 119.538C80.2432 119.231 80.0201 118.799 79.9644 118.241H80.7694C80.8182 118.583 80.968 118.844 81.2189 119.026C81.4698 119.207 81.8044 119.297 82.2226 119.297C82.5919 119.297 82.8812 119.228 83.0903 119.088C83.2994 118.949 83.4039 118.75 83.4039 118.492C83.4039 118.311 83.3447 118.154 83.2262 118.022C83.1077 117.883 82.8707 117.768 82.5153 117.677L81.658 117.457C81.1701 117.332 80.8042 117.14 80.5603 116.882C80.3163 116.618 80.1944 116.304 80.1944 115.941C80.1944 115.481 80.3651 115.119 80.7066 114.854C81.0482 114.582 81.5116 114.446 82.0971 114.446C82.6756 114.446 83.146 114.586 83.5085 114.865C83.8709 115.143 84.0765 115.53 84.1253 116.025H83.3203C83.2715 115.739 83.1391 115.52 82.923 115.366C82.7069 115.213 82.4212 115.136 82.0657 115.136C81.7242 115.136 81.4594 115.203 81.2712 115.335C81.083 115.461 80.9889 115.642 80.9889 115.879C80.9889 116.06 81.0551 116.217 81.1876 116.349C81.3269 116.482 81.5569 116.593 81.8776 116.684L82.7139 116.914C83.2088 117.046 83.5816 117.248 83.8326 117.52C84.0835 117.792 84.2089 118.119 84.2089 118.503C84.2089 118.97 84.0312 119.336 83.6757 119.601C83.3203 119.858 82.8289 119.987 82.2016 119.987ZM87.4671 119.977C86.8747 119.977 86.4426 119.844 86.1708 119.58C85.9059 119.308 85.7735 118.918 85.7735 118.409V113.307L86.6099 112.993V118.398C86.6099 118.698 86.6865 118.918 86.8399 119.057C86.9932 119.196 87.2441 119.266 87.5926 119.266C87.732 119.266 87.8505 119.259 87.948 119.245C88.0526 119.224 88.1362 119.2 88.199 119.172V119.883C88.1293 119.911 88.0282 119.932 87.8958 119.946C87.7703 119.966 87.6274 119.977 87.4671 119.977ZM84.6758 115.262V114.551H88.199V115.262H84.6758ZM91.3691 119.987C90.8464 119.987 90.3864 119.865 89.9891 119.621C89.5919 119.378 89.2817 119.046 89.0587 118.628C88.8426 118.203 88.7346 117.726 88.7346 117.196C88.7346 116.659 88.8461 116.185 89.0691 115.774C89.2922 115.363 89.5988 115.039 89.9891 114.802C90.3864 114.565 90.8464 114.446 91.3691 114.446C91.8988 114.446 92.3588 114.565 92.7491 114.802C93.1464 115.039 93.4531 115.363 93.6691 115.774C93.8922 116.185 94.0037 116.659 94.0037 117.196C94.0037 117.726 93.8922 118.203 93.6691 118.628C93.4531 119.046 93.1464 119.378 92.7491 119.621C92.3588 119.865 91.8988 119.987 91.3691 119.987ZM91.3691 119.276C91.7316 119.276 92.0452 119.189 92.31 119.015C92.5749 118.834 92.7805 118.586 92.9269 118.273C93.0732 117.959 93.1464 117.597 93.1464 117.186C93.1464 116.572 92.9826 116.081 92.655 115.711C92.3344 115.342 91.9058 115.157 91.3691 115.157C90.8394 115.157 90.4108 115.342 90.0832 115.711C89.7556 116.081 89.5919 116.572 89.5919 117.186C89.5919 117.597 89.665 117.959 89.8114 118.273C89.9578 118.586 90.1634 118.834 90.4282 119.015C90.7 119.189 91.0137 119.276 91.3691 119.276ZM95.2581 119.883V114.551H96.0422V115.91H96.0944V119.883H95.2581ZM96.0944 117.102L95.9585 115.837C96.084 115.384 96.307 115.039 96.6276 114.802C96.9482 114.565 97.3176 114.446 97.7358 114.446C97.91 114.446 98.0285 114.46 98.0912 114.488V115.293C98.0564 115.279 98.0076 115.272 97.9449 115.272C97.8822 115.265 97.8055 115.262 97.7149 115.262C97.1852 115.262 96.7809 115.422 96.5022 115.743C96.2303 116.056 96.0944 116.509 96.0944 117.102ZM101.18 119.987C100.671 119.987 100.221 119.869 99.8311 119.632C99.4408 119.388 99.1341 119.057 98.9111 118.639C98.6881 118.221 98.5766 117.74 98.5766 117.196C98.5766 116.652 98.6846 116.175 98.9007 115.764C99.1237 115.346 99.4338 115.021 99.8311 114.791C100.228 114.561 100.685 114.446 101.201 114.446C101.696 114.446 102.124 114.554 102.487 114.771C102.856 114.987 103.138 115.29 103.333 115.68C103.536 116.07 103.637 116.53 103.637 117.06C103.637 117.13 103.633 117.196 103.626 117.259C103.626 117.321 103.619 117.391 103.605 117.468H99.2038V116.767H103.093L102.821 117.154C102.821 116.513 102.678 116.022 102.392 115.68C102.114 115.332 101.716 115.157 101.201 115.157C100.671 115.157 100.242 115.342 99.9147 115.711C99.5941 116.074 99.4338 116.565 99.4338 117.186C99.4338 117.82 99.5941 118.329 99.9147 118.712C100.242 119.088 100.678 119.276 101.222 119.276C101.563 119.276 101.863 119.203 102.121 119.057C102.379 118.904 102.567 118.688 102.685 118.409H103.48C103.306 118.897 103.013 119.283 102.602 119.569C102.197 119.848 101.723 119.987 101.18 119.987ZM109.864 119.987C108.958 119.987 108.25 119.712 107.742 119.161C107.24 118.604 106.989 117.827 106.989 116.83V112.356H107.846V116.872C107.846 117.625 108.02 118.203 108.369 118.607C108.717 119.012 109.216 119.214 109.864 119.214C110.526 119.214 111.031 119.015 111.38 118.618C111.728 118.214 111.902 117.632 111.902 116.872V112.356H112.76V116.841C112.76 117.83 112.505 118.604 111.997 119.161C111.488 119.712 110.777 119.987 109.864 119.987ZM114.382 119.883V112.356H117.163C117.7 112.356 118.156 112.443 118.532 112.617C118.909 112.791 119.195 113.035 119.39 113.349C119.592 113.655 119.693 114.021 119.693 114.446C119.693 114.872 119.592 115.244 119.39 115.565C119.195 115.879 118.909 116.126 118.532 116.307C118.156 116.482 117.7 116.569 117.163 116.569H115.009V115.816H117.132C117.689 115.816 118.111 115.694 118.397 115.45C118.689 115.206 118.836 114.872 118.836 114.446C118.836 114.028 118.693 113.701 118.407 113.464C118.121 113.227 117.696 113.108 117.132 113.108H115.239V119.883H114.382ZM118.794 119.883L114.79 116.151H115.961L120.09 119.883H118.794ZM121.243 119.883V112.356H122.1V119.883H121.243ZM121.682 119.883V119.13H125.968V119.883H121.682Z" fill="#101314" fill-opacity="0.5"/>
<rect x="176.953" y="98.3984" width="35.9759" height="35.9759" rx="17.988" fill="#222222"/>
<path d="M200.142 121.587L197.627 119.072M198.986 115.805C198.986 118.36 196.915 120.431 194.36 120.431C191.805 120.431 189.734 118.36 189.734 115.805C189.734 113.251 191.805 111.18 194.36 111.18C196.915 111.18 198.986 113.251 198.986 115.805Z" stroke="url(#paint1_linear_738_13288)" stroke-width="1.1564" stroke-linecap="round" stroke-linejoin="round"/>
<g filter="url(#filter0_d_738_13288)">
<path fill-rule="evenodd" clip-rule="evenodd" d="M205.92 146.42C206.317 146.022 206.909 145.894 207.435 146.091L217.939 150.03C218.526 150.25 218.902 150.827 218.866 151.453C218.83 152.079 218.392 152.609 217.783 152.761L213.365 153.865L212.261 158.283C212.109 158.892 211.579 159.33 210.953 159.366C210.327 159.402 209.75 159.026 209.53 158.439L205.591 147.935C205.394 147.409 205.522 146.817 205.92 146.42Z" fill="white"/>
</g>
<path fill-rule="evenodd" clip-rule="evenodd" d="M207.098 146.984C206.923 146.918 206.725 146.961 206.593 147.093C206.461 147.225 206.418 147.423 206.484 147.598L210.422 158.102C210.496 158.297 210.688 158.423 210.897 158.411C211.105 158.399 211.282 158.253 211.333 158.05L212.576 153.076L217.55 151.833C217.753 151.782 217.899 151.605 217.911 151.397C217.923 151.188 217.797 150.996 217.602 150.922L207.098 146.984Z" fill="#222222"/>
<defs>
<filter id="filter0_d_738_13288" x="202.635" y="144.09" width="19.0964" height="19.0964" filterUnits="userSpaceOnUse" color-interpolation-filters="sRGB">
<feFlood flood-opacity="0" result="BackgroundImageFix"/>
<feColorMatrix in="SourceAlpha" type="matrix" values="0 0 0 0 0 0 0 0 0 0 0 0 0 0 0 0 0 0 127 0" result="hardAlpha"/>
<feOffset dy="0.954872"/>
<feGaussianBlur stdDeviation="1.43231"/>
<feColorMatrix type="matrix" values="0 0 0 0 0 0 0 0 0 0 0 0 0 0 0 0 0 0 0.35 0"/>
<feBlend mode="normal" in2="BackgroundImageFix" result="effect1_dropShadow_738_13288"/>
<feBlend mode="normal" in="SourceGraphic" in2="effect1_dropShadow_738_13288" result="shape"/>
</filter>
<linearGradient id="paint0_linear_738_13288" x1="28.5596" y1="102.167" x2="204.229" y2="171.994" gradientUnits="userSpaceOnUse">
<stop stop-color="#D9FFC1"/>
<stop offset="0.433489" stop-color="#C5FFC2"/>
<stop offset="1" stop-color="#77F1BC"/>
</linearGradient>
<linearGradient id="paint1_linear_738_13288" x1="189.568" y1="112.754" x2="200.986" y2="113.759" gradientUnits="userSpaceOnUse">
<stop stop-color="#D9FFC1"/>
<stop offset="0.433489" stop-color="#C5FFC2"/>
<stop offset="1" stop-color="#77F1BC"/>
</linearGradient>
</defs>
</svg>
