<svg width="325" height="310" viewBox="0 0 325 310" fill="none" xmlns="http://www.w3.org/2000/svg">
<g filter="url(#filter0_ddd_738_13288)">
<rect x="39.5" y="32" width="246" height="231" rx="10" fill="white"/>
<rect x="70.5" y="128" width="184" height="40.7727" rx="20.3864" fill="url(#paint0_linear_738_13288)"/>
<rect x="70.757" y="128.257" width="183.486" height="40.2588" rx="20.1294" stroke="black" stroke-opacity="0.15" stroke-width="0.513942"/>
<path d="M90.9303 151.883V144.356H91.7876V151.883H90.9303ZM91.3694 151.883V151.13H95.9694V151.883H91.3694ZM91.3694 148.339V147.586H95.5931V148.339H91.3694ZM91.3694 145.108V144.356H95.8858V145.108H91.3694ZM97.5344 151.883V146.551H98.3185V147.806H98.3708V151.883H97.5344ZM101.35 151.883V148.391C101.35 147.987 101.249 147.684 101.047 147.481C100.845 147.279 100.545 147.178 100.148 147.178C99.7996 147.178 99.4894 147.255 99.2176 147.408C98.9528 147.562 98.7437 147.774 98.5903 148.046C98.444 148.318 98.3708 148.635 98.3708 148.997L98.2349 147.732C98.4161 147.335 98.6914 147.021 99.0608 146.791C99.4372 146.561 99.8623 146.446 100.336 146.446C100.894 146.446 101.34 146.607 101.674 146.927C102.016 147.241 102.187 147.656 102.187 148.171V151.883H101.35ZM105.783 151.977C105.19 151.977 104.758 151.844 104.486 151.58C104.221 151.308 104.089 150.918 104.089 150.409V145.307L104.925 144.993V150.398C104.925 150.698 105.002 150.918 105.155 151.057C105.309 151.196 105.56 151.266 105.908 151.266C106.048 151.266 106.166 151.259 106.264 151.245C106.368 151.224 106.452 151.2 106.514 151.172V151.883C106.445 151.911 106.344 151.932 106.211 151.946C106.086 151.966 105.943 151.977 105.783 151.977ZM102.991 147.262V146.551H106.514V147.262H102.991ZM109.663 151.987C109.155 151.987 108.705 151.869 108.315 151.632C107.925 151.388 107.618 151.057 107.395 150.639C107.172 150.221 107.06 149.74 107.06 149.196C107.06 148.652 107.168 148.175 107.384 147.764C107.607 147.346 107.918 147.021 108.315 146.791C108.712 146.561 109.169 146.446 109.684 146.446C110.179 146.446 110.608 146.554 110.97 146.771C111.34 146.987 111.622 147.29 111.817 147.68C112.019 148.07 112.12 148.53 112.12 149.06C112.12 149.13 112.117 149.196 112.11 149.259C112.11 149.321 112.103 149.391 112.089 149.468H107.688V148.767H111.577L111.305 149.154C111.305 148.513 111.162 148.022 110.876 147.68C110.597 147.332 110.2 147.157 109.684 147.157C109.155 147.157 108.726 147.342 108.398 147.711C108.078 148.074 107.918 148.565 107.918 149.186C107.918 149.82 108.078 150.329 108.398 150.712C108.726 151.088 109.162 151.276 109.705 151.276C110.047 151.276 110.347 151.203 110.604 151.057C110.862 150.904 111.05 150.688 111.169 150.409H111.963C111.789 150.897 111.497 151.283 111.085 151.569C110.681 151.848 110.207 151.987 109.663 151.987ZM113.38 151.883V146.551H114.164V147.91H114.216V151.883H113.38ZM114.216 149.102L114.08 147.837C114.206 147.384 114.429 147.039 114.749 146.802C115.07 146.565 115.439 146.446 115.857 146.446C116.032 146.446 116.15 146.46 116.213 146.488V147.293C116.178 147.279 116.129 147.272 116.066 147.272C116.004 147.265 115.927 147.262 115.836 147.262C115.307 147.262 114.902 147.422 114.624 147.743C114.352 148.056 114.216 148.509 114.216 149.102ZM121.202 151.987C120.546 151.987 120.024 151.838 119.633 151.538C119.243 151.231 119.02 150.799 118.964 150.241H119.769C119.818 150.583 119.968 150.844 120.219 151.026C120.47 151.207 120.804 151.297 121.223 151.297C121.592 151.297 121.881 151.228 122.09 151.088C122.299 150.949 122.404 150.75 122.404 150.492C122.404 150.311 122.345 150.154 122.226 150.022C122.108 149.883 121.871 149.768 121.515 149.677L120.658 149.457C120.17 149.332 119.804 149.14 119.56 148.882C119.316 148.618 119.194 148.304 119.194 147.941C119.194 147.481 119.365 147.119 119.707 146.854C120.048 146.582 120.512 146.446 121.097 146.446C121.676 146.446 122.146 146.586 122.508 146.865C122.871 147.143 123.076 147.53 123.125 148.025H122.32C122.271 147.739 122.139 147.52 121.923 147.366C121.707 147.213 121.421 147.136 121.066 147.136C120.724 147.136 120.459 147.203 120.271 147.335C120.083 147.461 119.989 147.642 119.989 147.879C119.989 148.06 120.055 148.217 120.188 148.349C120.327 148.482 120.557 148.593 120.878 148.684L121.714 148.914C122.209 149.046 122.582 149.248 122.833 149.52C123.083 149.792 123.209 150.119 123.209 150.503C123.209 150.97 123.031 151.336 122.676 151.601C122.32 151.858 121.829 151.987 121.202 151.987ZM126.467 151.977C125.875 151.977 125.443 151.844 125.171 151.58C124.906 151.308 124.774 150.918 124.774 150.409V145.307L125.61 144.993V150.398C125.61 150.698 125.687 150.918 125.84 151.057C125.993 151.196 126.244 151.266 126.593 151.266C126.732 151.266 126.85 151.259 126.948 151.245C127.053 151.224 127.136 151.2 127.199 151.172V151.883C127.129 151.911 127.028 151.932 126.896 151.946C126.77 151.966 126.627 151.977 126.467 151.977ZM123.676 147.262V146.551H127.199V147.262H123.676ZM130.369 151.987C129.846 151.987 129.386 151.865 128.989 151.621C128.592 151.378 128.282 151.046 128.059 150.628C127.843 150.203 127.735 149.726 127.735 149.196C127.735 148.659 127.846 148.185 128.069 147.774C128.292 147.363 128.599 147.039 128.989 146.802C129.386 146.565 129.846 146.446 130.369 146.446C130.899 146.446 131.359 146.565 131.749 146.802C132.146 147.039 132.453 147.363 132.669 147.774C132.892 148.185 133.004 148.659 133.004 149.196C133.004 149.726 132.892 150.203 132.669 150.628C132.453 151.046 132.146 151.378 131.749 151.621C131.359 151.865 130.899 151.987 130.369 151.987ZM130.369 151.276C130.732 151.276 131.045 151.189 131.31 151.015C131.575 150.834 131.78 150.586 131.927 150.273C132.073 149.959 132.146 149.597 132.146 149.186C132.146 148.572 131.983 148.081 131.655 147.711C131.334 147.342 130.906 147.157 130.369 147.157C129.839 147.157 129.411 147.342 129.083 147.711C128.756 148.081 128.592 148.572 128.592 149.186C128.592 149.597 128.665 149.959 128.811 150.273C128.958 150.586 129.163 150.834 129.428 151.015C129.7 151.189 130.014 151.276 130.369 151.276ZM134.258 151.883V146.551H135.042V147.91H135.094V151.883H134.258ZM135.094 149.102L134.959 147.837C135.084 147.384 135.307 147.039 135.628 146.802C135.948 146.565 136.318 146.446 136.736 146.446C136.91 146.446 137.029 146.46 137.091 146.488V147.293C137.056 147.279 137.008 147.272 136.945 147.272C136.882 147.265 136.805 147.262 136.715 147.262C136.185 147.262 135.781 147.422 135.502 147.743C135.23 148.056 135.094 148.509 135.094 149.102ZM140.18 151.987C139.671 151.987 139.221 151.869 138.831 151.632C138.441 151.388 138.134 151.057 137.911 150.639C137.688 150.221 137.577 149.74 137.577 149.196C137.577 148.652 137.685 148.175 137.901 147.764C138.124 147.346 138.434 147.021 138.831 146.791C139.228 146.561 139.685 146.446 140.201 146.446C140.696 146.446 141.124 146.554 141.487 146.771C141.856 146.987 142.138 147.29 142.333 147.68C142.536 148.07 142.637 148.53 142.637 149.06C142.637 149.13 142.633 149.196 142.626 149.259C142.626 149.321 142.619 149.391 142.605 149.468H138.204V148.767H142.093L141.821 149.154C141.821 148.513 141.678 148.022 141.392 147.68C141.114 147.332 140.716 147.157 140.201 147.157C139.671 147.157 139.242 147.342 138.915 147.711C138.594 148.074 138.434 148.565 138.434 149.186C138.434 149.82 138.594 150.329 138.915 150.712C139.242 151.088 139.678 151.276 140.222 151.276C140.563 151.276 140.863 151.203 141.121 151.057C141.379 150.904 141.567 150.688 141.685 150.409H142.48C142.306 150.897 142.013 151.283 141.602 151.569C141.197 151.848 140.723 151.987 140.18 151.987ZM148.864 151.987C147.958 151.987 147.25 151.712 146.742 151.161C146.24 150.604 145.989 149.827 145.989 148.83V144.356H146.846V148.872C146.846 149.625 147.02 150.203 147.369 150.607C147.717 151.012 148.216 151.214 148.864 151.214C149.526 151.214 150.031 151.015 150.38 150.618C150.728 150.214 150.902 149.632 150.902 148.872V144.356H151.76V148.841C151.76 149.83 151.505 150.604 150.997 151.161C150.488 151.712 149.777 151.987 148.864 151.987ZM153.382 151.883V144.356H156.163C156.7 144.356 157.156 144.443 157.532 144.617C157.909 144.791 158.195 145.035 158.39 145.349C158.592 145.655 158.693 146.021 158.693 146.446C158.693 146.872 158.592 147.244 158.39 147.565C158.195 147.879 157.909 148.126 157.532 148.307C157.156 148.482 156.7 148.569 156.163 148.569H154.009V147.816H156.132C156.689 147.816 157.111 147.694 157.397 147.45C157.689 147.206 157.836 146.872 157.836 146.446C157.836 146.028 157.693 145.701 157.407 145.464C157.121 145.227 156.696 145.108 156.132 145.108H154.239V151.883H153.382ZM157.794 151.883L153.79 148.151H154.961L159.09 151.883H157.794ZM160.243 151.883V144.356H161.1V151.883H160.243ZM160.682 151.883V151.13H164.968V151.883H160.682Z" fill="#101314" fill-opacity="0.5"/>
<rect x="215.953" y="130.398" width="35.9759" height="35.9759" rx="17.988" fill="#222222"/>
<path d="M239.142 153.587L236.627 151.072M237.986 147.805C237.986 150.36 235.915 152.431 233.36 152.431C230.805 152.431 228.734 150.36 228.734 147.805C228.734 145.251 230.805 143.18 233.36 143.18C235.915 143.18 237.986 145.251 237.986 147.805Z" stroke="url(#paint1_linear_738_13288)" stroke-width="1.1564" stroke-linecap="round" stroke-linejoin="round"/>
<g filter="url(#filter1_d_738_13288)">
<path fill-rule="evenodd" clip-rule="evenodd" d="M244.92 178.42C245.317 178.022 245.909 177.894 246.435 178.091L256.939 182.03C257.526 182.25 257.902 182.827 257.866 183.453C257.83 184.079 257.392 184.609 256.783 184.761L252.365 185.865L251.261 190.283C251.109 190.892 250.579 191.33 249.953 191.366C249.327 191.402 248.75 191.026 248.53 190.439L244.591 179.935C244.394 179.409 244.522 178.817 244.92 178.42Z" fill="white"/>
</g>
<path fill-rule="evenodd" clip-rule="evenodd" d="M246.098 178.984C245.923 178.918 245.725 178.961 245.593 179.093C245.461 179.225 245.418 179.423 245.484 179.598L249.422 190.102C249.496 190.297 249.688 190.423 249.897 190.411C250.105 190.399 250.282 190.253 250.333 190.05L251.576 185.076L256.55 183.833C256.753 183.782 256.899 183.605 256.911 183.397C256.923 183.188 256.797 182.996 256.602 182.922L246.098 178.984Z" fill="#222222"/>
</g>
<defs>
<filter id="filter0_ddd_738_13288" x="0.394001" y="0.715001" width="324.212" height="309.212" filterUnits="userSpaceOnUse" color-interpolation-filters="sRGB">
<feFlood flood-opacity="0" result="BackgroundImageFix"/>
<feColorMatrix in="SourceAlpha" type="matrix" values="0 0 0 0 0 0 0 0 0 0 0 0 0 0 0 0 0 0 127 0" result="hardAlpha"/>
<feOffset dy="1.955"/>
<feGaussianBlur stdDeviation="2.444"/>
<feComposite in2="hardAlpha" operator="out"/>
<feColorMatrix type="matrix" values="0 0 0 0 0 0 0 0 0 0 0 0 0 0 0 0 0 0 0.05 0"/>
<feBlend mode="normal" in2="BackgroundImageFix" result="effect1_dropShadow_738_13288"/>
<feColorMatrix in="SourceAlpha" type="matrix" values="0 0 0 0 0 0 0 0 0 0 0 0 0 0 0 0 0 0 127 0" result="hardAlpha"/>
<feOffset dy="7.821"/>
<feGaussianBlur stdDeviation="19.553"/>
<feComposite in2="hardAlpha" operator="out"/>
<feColorMatrix type="matrix" values="0 0 0 0 0 0 0 0 0 0 0 0 0 0 0 0 0 0 0.04 0"/>
<feBlend mode="normal" in2="effect1_dropShadow_738_13288" result="effect2_dropShadow_738_13288"/>
<feColorMatrix in="SourceAlpha" type="matrix" values="0 0 0 0 0 0 0 0 0 0 0 0 0 0 0 0 0 0 127 0" result="hardAlpha"/>
<feOffset/>
<feGaussianBlur stdDeviation="0.5"/>
<feComposite in2="hardAlpha" operator="out"/>
<feColorMatrix type="matrix" values="0 0 0 0 0 0 0 0 0 0 0 0 0 0 0 0 0 0 0.15 0"/>
<feBlend mode="normal" in2="effect2_dropShadow_738_13288" result="effect3_dropShadow_738_13288"/>
<feBlend mode="normal" in="SourceGraphic" in2="effect3_dropShadow_738_13288" result="shape"/>
</filter>
<filter id="filter1_d_738_13288" x="241.635" y="176.09" width="19.0964" height="19.0964" filterUnits="userSpaceOnUse" color-interpolation-filters="sRGB">
<feFlood flood-opacity="0" result="BackgroundImageFix"/>
<feColorMatrix in="SourceAlpha" type="matrix" values="0 0 0 0 0 0 0 0 0 0 0 0 0 0 0 0 0 0 127 0" result="hardAlpha"/>
<feOffset dy="0.954872"/>
<feGaussianBlur stdDeviation="1.43231"/>
<feColorMatrix type="matrix" values="0 0 0 0 0 0 0 0 0 0 0 0 0 0 0 0 0 0 0.35 0"/>
<feBlend mode="normal" in2="BackgroundImageFix" result="effect1_dropShadow_738_13288"/>
<feBlend mode="normal" in="SourceGraphic" in2="effect1_dropShadow_738_13288" result="shape"/>
</filter>
<linearGradient id="paint0_linear_738_13288" x1="67.5596" y1="134.167" x2="243.229" y2="203.994" gradientUnits="userSpaceOnUse">
<stop stop-color="#D9FFC1"/>
<stop offset="0.433489" stop-color="#C5FFC2"/>
<stop offset="1" stop-color="#77F1BC"/>
</linearGradient>
<linearGradient id="paint1_linear_738_13288" x1="228.568" y1="144.754" x2="239.986" y2="145.759" gradientUnits="userSpaceOnUse">
<stop stop-color="#D9FFC1"/>
<stop offset="0.433489" stop-color="#C5FFC2"/>
<stop offset="1" stop-color="#77F1BC"/>
</linearGradient>
</defs>
</svg>
